<svg width="15" height="18" viewBox="0 0 15 18" fill="none" xmlns="http://www.w3.org/2000/svg">
<path d="M5.5 14.0001C5.04167 14.0001 4.64931 13.8369 4.32292 13.5105C3.99653 13.1841 3.83333 12.7917 3.83333 12.3334L3.83333 2.33341C3.83333 1.87508 3.99653 1.48272 4.32292 1.15633C4.64931 0.829943 5.04167 0.666748 5.5 0.666748L13 0.666748C13.4583 0.666748 13.8507 0.829943 14.1771 1.15633C14.5035 1.48272 14.6667 1.87508 14.6667 2.33341V12.3334C14.6667 12.7917 14.5035 13.1841 14.1771 13.5105C13.8507 13.8369 13.4583 14.0001 13 14.0001H5.5ZM5.5 12.3334H13V2.33341L5.5 2.33341L5.5 12.3334ZM2.16667 17.3334C1.70833 17.3334 1.31597 17.1702 0.989583 16.8438C0.663194 16.5174 0.5 16.1251 0.5 15.6667L0.5 4.00008H2.16667L2.16667 15.6667H11.3333V17.3334H2.16667Z" fill="white"/>
</svg>
