<svg width="28" height="28" viewBox="0 0 28 28" fill="none" xmlns="http://www.w3.org/2000/svg">
<mask id="mask0_57963_2833" style="mask-type:alpha" maskUnits="userSpaceOnUse" x="0" y="0" width="28" height="28">
<rect width="28" height="28" fill="#D9D9D9"/>
</mask>
<g mask="url(#mask0_57963_2833)">
<path d="M17.5 24.5L10.5 22.05L5.075 24.15C4.68611 24.3056 4.32639 24.2618 3.99583 24.0187C3.66528 23.7757 3.5 23.45 3.5 23.0417V6.70833C3.5 6.45556 3.57292 6.23194 3.71875 6.0375C3.86458 5.84306 4.06389 5.69722 4.31667 5.6L10.5 3.5L17.5 5.95L22.925 3.85C23.3139 3.69444 23.6736 3.73819 24.0042 3.98125C24.3347 4.22431 24.5 4.55 24.5 4.95833V21.2917C24.5 21.5444 24.4271 21.7681 24.2812 21.9625C24.1354 22.1569 23.9361 22.3028 23.6833 22.4L17.5 24.5ZM16.3333 21.6417V7.99167L11.6667 6.35833V20.0083L16.3333 21.6417ZM18.6667 21.6417L22.1667 20.475V6.65L18.6667 7.99167V21.6417ZM5.83333 21.35L9.33333 20.0083V6.35833L5.83333 7.525V21.35Z" fill="currentColor"/>
</g>
</svg>
