<svg width="43" height="43" viewBox="0 0 43 43" fill="none" xmlns="http://www.w3.org/2000/svg">
<path fill-rule="evenodd" clip-rule="evenodd" d="M21.5 43C33.3741 43 43 33.3741 43 21.5C43 9.62588 33.3741 0 21.5 0C9.62588 0 0 9.62588 0 21.5C0 33.3741 9.62588 43 21.5 43ZM15.0184 29.7101C15.4751 30.1387 16.0196 30.353 16.652 30.353H27.8235V15.1765H26.1373V28.6667H16.652C16.4833 28.6667 16.3358 28.614 16.2093 28.5086C16.0828 28.4032 16.0196 28.2732 16.0196 28.1187C16.0196 27.9922 16.0618 27.8763 16.1461 27.7709C16.2304 27.6655 16.3358 27.5987 16.4623 27.5706L24.451 25.9687V12.4785L16.125 14.1226C15.591 14.235 15.1589 14.502 14.8287 14.9236C14.4984 15.3451 14.3333 15.8229 14.3333 16.3569V28.1187C14.3333 28.751 14.5617 29.2815 15.0184 29.7101ZM22.7647 24.6196L18.549 25.4417V15.3662L22.7647 14.5442V24.6196ZM16.8627 15.7035V25.779L16.4623 25.8633C16.392 25.8773 16.3182 25.8949 16.2409 25.916C16.1636 25.937 16.0899 25.9616 16.0196 25.9897V16.3569C16.0196 16.2023 16.0688 16.0723 16.1672 15.967C16.2655 15.8616 16.392 15.7948 16.5466 15.7667L16.8627 15.7035Z" fill="currentColor"/>
</svg>
